<svg viewBox="0 0 42 56" fill="none" xmlns="http://www.w3.org/2000/svg"><path fill-rule="evenodd" clip-rule="evenodd" d="M20.148 10c8.17 0 15.123 5.947 16.39 14.017l3.805 24.21a.823.823 0 0 1-.814.95H2.483a.823.823 0 0 1-.818-.914L4.377 24.1c.9-8.03 7.69-14.1 15.77-14.1z" fill="#A570FF"/><path fill-rule="evenodd" clip-rule="evenodd" d="M34.752 23.44h1.219a3.128 3.128 0 0 1 0 6.255h-1.22a3.128 3.128 0 1 1 0-6.255z" fill="#FFC6B7"/><path d="M21.97 12.47a13.569 13.569 0 0 1 13.483 12.046l1.256 11.12a6.7 6.7 0 0 1-6.658 7.451h-16.87a6.7 6.7 0 0 1-6.632-7.652L8.124 24.47c.99-6.887 6.889-12 13.846-12z" fill="#FFC6B7"/><path d="M29.753 24.245h-3.619a4.146 4.146 0 0 0-4.146 4.146v2.887c0 1.117.906 2.023 2.023 2.023h2.123a4.146 4.146 0 0 0 4.146-4.146v-4.382a.528.528 0 0 0-.527-.528z" fill="#fff"/><path fill-rule="evenodd" clip-rule="evenodd" d="M25.253 24.949a1.861 1.861 0 0 0-1.86 1.861v2.338a1.861 1.861 0 0 0 3.722 0V26.81a1.861 1.861 0 0 0-1.861-1.861z" fill="#3D3D3D"/><path d="M30.28 29.17h-8.292v-.779a4.146 4.146 0 0 1 4.146-4.146h3.619c.291 0 .527.237.527.528V29.17z" fill="#A570FF"/><path d="M13.17 24.245h3.618a4.146 4.146 0 0 1 4.146 4.146v2.8a2.11 2.11 0 0 1-2.11 2.11h-2.036a4.146 4.146 0 0 1-4.146-4.146v-4.382c0-.291.236-.528.527-.528z" fill="#fff"/><path fill-rule="evenodd" clip-rule="evenodd" d="M17.669 24.949c1.027 0 1.86.833 1.86 1.861v2.338a1.861 1.861 0 0 1-3.722 0V26.81c0-1.028.833-1.861 1.862-1.861z" fill="#3D3D3D"/><path d="M20.934 29.17v-.779a4.146 4.146 0 0 0-4.146-4.146h-3.619a.528.528 0 0 0-.527.528V29.17h8.292z" fill="#A570FF"/><path fill-rule="evenodd" clip-rule="evenodd" d="M26.007 36.731c-.441.304-.936.92-1.46 1.93a.543.543 0 1 1-.965-.5c.554-1.067 1.15-1.87 1.81-2.324.337-.233.702-.381 1.09-.415.39-.035.77.05 1.13.229a.543.543 0 1 1-.485.972 1.01 1.01 0 0 0-.55-.119c-.167.015-.356.08-.57.227zM21.373 36.029c.923 0 1.67-.744 1.67-1.662 0-.917-1.67-3.087-1.67-3.087s-1.67 2.17-1.67 3.087c0 .918.747 1.662 1.67 1.662z" fill="#EE9583"/><path d="M35.445 23.44h-9.698c-5.455 0-9.877-4.422-9.877-9.877v-.695a13.945 13.945 0 0 1 6.1-1.399c6.88 0 12.666 5.147 13.475 11.97z" fill="#A570FF"/><path fill-rule="evenodd" clip-rule="evenodd" d="M10.137 14.897l.014-.014 4.758-1.977a.988.988 0 0 1 1.367.912V43.91a.823.823 0 0 1-.824.823H6.11a.988.988 0 0 1-.987-.987V26.727c0-4.46 1.81-8.73 5.015-11.831z" fill="#A570FF"/><path fill-rule="evenodd" clip-rule="evenodd" d="M17.592 43.151h6.77c.292 0 .528.236.528.528v4.948a.528.528 0 0 1-.527.527h-6.771a.528.528 0 0 1-.528-.527v-4.948c0-.292.236-.528.528-.528z" fill="#593F86"/></svg>